<?xml version="1.0" encoding="UTF-8"?><svg xmlns="http://www.w3.org/2000/svg" viewBox="0 0 188 258.99"><defs><style>.cls-1{fill:#231f20;}.cls-2{stroke-linecap:round;}.cls-2,.cls-3,.cls-4{fill:none;stroke:#fff;stroke-linejoin:round;}.cls-2,.cls-4{stroke-width:10px;}.cls-5{fill:#fff;stroke:#231f20;stroke-miterlimit:10;}.cls-3{stroke-width:9.93px;}</style></defs><g id="backgrounds"><rect id="border" class="cls-5" x=".5" y=".5" width="187" height="257.99" rx="23.54" ry="23.54"/><rect id="background" class="cls-1" x="6.59" y="6.03" width="174.79" height="246.67" rx="23.54" ry="23.54"/></g><g id="frontalb"><path id="frontb" class="cls-2" d="M81.53,112.6h41.67c7.78,0,14.09,6.31,14.09,14.09v44.83c0,7.78-6.31,14.09-14.09,14.09H63.25s-23.4,0-23.4,0c-7.78,0-14.09-6.31-14.09-14.09V6.79"/></g><g id="backb"><line id="lower" class="cls-3" x1="50.66" y1="174.89" x2="50.66" y2="3.99"/><line class="cls-4" x1="104.21" y1="160.52" x2="126.7" y2="160.52"/><line class="cls-2" x1="102.12" y1="160.52" x2="106.45" y2="160.52"/><path class="cls-4" d="M148.1,160.52c7.78,0,14.09,6.31,14.09,14.09v44.83c0,7.78-6.31,14.09-14.09,14.09h-59.95s-23.4,0-23.4,0c-7.78,0-14.09-6.31-14.09-14.09v-23.22"/></g></svg>