<?xml version="1.0" encoding="UTF-8"?><svg id="Layer_2" xmlns="http://www.w3.org/2000/svg" viewBox="0 0 290.5 400.41"><defs><style>.cls-1{fill:#231f20;}.cls-2{stroke-linecap:round;}.cls-2,.cls-3,.cls-4{fill:none;}.cls-2,.cls-4{stroke:#fff;stroke-linejoin:round;stroke-width:10px;}.cls-3{stroke:#231f20;stroke-miterlimit:10;}</style></defs><g id="Layer_1-2"><rect class="cls-1" x="9.93" y="9.06" width="270.6" height="381.87" rx="23.54" ry="23.54"/><rect class="cls-3" x=".5" y=".5" width="289.5" height="399.41" rx="23.54" ry="23.54"/><path class="cls-2" d="M125.94,174.05h64.52c12.05,0,21.81,9.77,21.81,21.81v69.4c0,12.05-9.77,21.81-21.81,21.81H97.65s-36.22,0-36.22,0c-12.05,0-21.81-9.77-21.81-21.81V9.06"/><path class="cls-4" d="M229,248.23c12.05,0,21.81,9.77,21.81,21.81v69.4c0,12.05-9.77,21.81-21.81,21.81h-92.81s-36.22,0-36.22,0c-12.05,0-21.81-9.77-21.81-21.81v-35.95"/><line id="lower" class="cls-4" x1="78.15" y1="270.48" x2="78.15" y2="2.17"/><line class="cls-4" x1="161.05" y1="248.23" x2="195.87" y2="248.23"/><line class="cls-2" x1="157.82" y1="248.23" x2="164.53" y2="248.23"/></g></svg>